# xmcd
#
# Track frame offsets: 
#        150
#        14258
#        29049
#        42935
#        62454
#        80061
#        96526
#        115234
#        130227
#
# Disc length: 1966 seconds
#
# Revision: 3
# Processed by: cddbd v1.5.2PL0 Copyright (c) Steve Scherf et al.
# Submitted via: ExactAudioCopy v1.3
#
DISCID=7907ac09
DTITLE=Marty Stuart - Marty Stuart (LP)
DYEAR=1986
DGENRE=Country
TTITLE0=Arlene
TTITLE1=All Because Of You
TTITLE2=The Shape I'm In
TTITLE3=Hometown Heroes
TTITLE4=Honky Tonker
TTITLE5=Do You Really Want My Lovin'
TTITLE6=Maria [Love To See You Again]
TTITLE7=Heart Of Stone
TTITLE8=Beyond The Great Divide
EXTD=
EXTT0=
EXTT1=
EXTT2=
EXTT3=
EXTT4=
EXTT5=
EXTT6=
EXTT7=
EXTT8=
PLAYORDER=
